<?xml version="1.0" standalone="no"?>
<!DOCTYPE svg PUBLIC "-//W3C//DTD SVG 20010904//EN"
 "http://www.w3.org/TR/2001/REC-SVG-20010904/DTD/svg10.dtd">
<svg version="1.0" xmlns="http://www.w3.org/2000/svg"
 width="80.000000pt" height="80.000000pt" viewBox="0 0 80.000000 80.000000"
 preserveAspectRatio="xMidYMid meet">
<metadata>
Created by potrace 1.14, written by Peter Selinger 2001-2017
</metadata>
<g transform="translate(0.000000,80.000000) scale(0.100000,-0.100000)"
fill="#000000" stroke="none">
<path d="M210 771 c-167 -55 -237 -208 -154 -334 l26 -39 -31 -50 -31 -50 32
5 c50 7 92 19 105 29 6 5 24 5 40 1 15 -4 32 -7 36 -8 5 0 9 -27 11 -60 5
-121 99 -209 240 -222 38 -3 77 -1 99 6 29 10 42 9 71 -3 19 -8 56 -18 81 -22
l46 -6 -32 50 -31 50 26 39 c50 75 44 175 -15 246 -30 37 -99 78 -150 90 -22
6 -25 11 -21 40 14 124 -99 234 -251 243 -40 2 -83 0 -97 -5z"/>
</g>
</svg>
